<svg width="1400" height="420" viewBox="0 0 1400 420" fill="none" xmlns="http://www.w3.org/2000/svg">
  <defs>
    <linearGradient id="bg" x1="0" y1="0" x2="1400" y2="420" gradientUnits="userSpaceOnUse">
      <stop stop-color="#090C16"/>
      <stop offset="0.5" stop-color="#101B2D"/>
      <stop offset="1" stop-color="#090C16"/>
    </linearGradient>
    <linearGradient id="pink" x1="0" y1="0" x2="1" y2="1">
      <stop stop-color="#FF4D9D"/>
      <stop offset="1" stop-color="#FF7A59"/>
    </linearGradient>
    <linearGradient id="cyan" x1="0" y1="0" x2="1" y2="1">
      <stop stop-color="#2DE2FF"/>
      <stop offset="1" stop-color="#7C72FF"/>
    </linearGradient>
    <linearGradient id="green" x1="0" y1="0" x2="1" y2="1">
      <stop stop-color="#00F5A0"/>
      <stop offset="1" stop-color="#0ABFBC"/>
    </linearGradient>
    <filter id="glow" x="-50%" y="-50%" width="200%" height="200%">
      <feGaussianBlur stdDeviation="8" result="blur"/>
      <feMerge>
        <feMergeNode in="blur"/>
        <feMergeNode in="SourceGraphic"/>
      </feMerge>
    </filter>
  </defs>

  <rect width="1400" height="420" rx="32" fill="url(#bg)"/>
  <circle cx="1200" cy="70" r="180" fill="#1F2B4F" opacity="0.6"/>
  <circle cx="1210" cy="80" r="120" fill="url(#cyan)" opacity="0.25"/>
  <circle cx="310" cy="310" r="220" fill="#25153A" opacity="0.5"/>

  <g opacity="0.18">
    <path d="M80 310H1320" stroke="#7A87C6" stroke-width="1"/>
    <path d="M80 240H1320" stroke="#7A87C6" stroke-width="1"/>
    <path d="M80 170H1320" stroke="#7A87C6" stroke-width="1"/>
    <path d="M80 100H1320" stroke="#7A87C6" stroke-width="1"/>
  </g>

  <g filter="url(#glow)">
    <rect x="110" y="75" width="140" height="18" rx="9" fill="#FF4D9D" opacity="0.9"/>
    <rect x="260" y="75" width="90" height="18" rx="9" fill="#2DE2FF" opacity="0.9"/>
    <rect x="360" y="75" width="130" height="18" rx="9" fill="#00F5A0" opacity="0.9"/>
  </g>

  <g>
    <text x="96" y="170" fill="#EAF2FF" font-family="Segoe UI, Arial, sans-serif" font-size="58" font-weight="800" letter-spacing="1.5">SURAJIT</text>
    <text x="96" y="232" fill="#56D6FF" font-family="Segoe UI, Arial, sans-serif" font-size="58" font-weight="800" letter-spacing="1.5">MANDAL</text>
    <text x="96" y="282" fill="#D5E3FF" font-family="Segoe UI, Arial, sans-serif" font-size="24" font-weight="600" letter-spacing="0.7">FULL STACK WEB DEVELOPER • BCA STUDENT • DSA ENTHUSIAST</text>

    <g transform="translate(96 310)">
      <rect x="0" y="0" width="160" height="36" rx="18" fill="#121A2B" stroke="#2DE2FF" stroke-opacity="0.7"/>
      <text x="80" y="24" text-anchor="middle" fill="#BCEFFF" font-family="Segoe UI, Arial, sans-serif" font-size="16" font-weight="700">WEB DEV</text>
      <rect x="175" y="0" width="170" height="36" rx="18" fill="#121A2B" stroke="#FF4D9D" stroke-opacity="0.7"/>
      <text x="260" y="24" text-anchor="middle" fill="#FFD2E8" font-family="Segoe UI, Arial, sans-serif" font-size="16" font-weight="700">OPEN TO WORK</text>
    </g>
  </g>

  <g>
    <rect x="920" y="92" width="340" height="200" rx="24" fill="#0F1728" stroke="#23314D" stroke-width="1.5"/>
    <rect x="940" y="108" width="120" height="120" rx="28" fill="url(#pink)" opacity="0.9"/>
    <text x="1000" y="178" text-anchor="middle" fill="#0F1728" font-family="Segoe UI, Arial, sans-serif" font-size="54" font-weight="800">S</text>

    <text x="1085" y="145" fill="#F4F6FF" font-family="Segoe UI, Arial, sans-serif" font-size="24" font-weight="700">Surajit</text>
    <text x="1085" y="174" fill="#7EA1F2" font-family="Segoe UI, Arial, sans-serif" font-size="18" font-weight="500">Full Stack Engineer</text>

    <g transform="translate(1085 200)">
      <rect x="0" y="0" width="84" height="28" rx="14" fill="#0F2E30"/>
      <text x="42" y="18" text-anchor="middle" fill="#79F7D3" font-family="Segoe UI, Arial, sans-serif" font-size="12" font-weight="700">90+ DSA</text>
      <rect x="94" y="0" width="90" height="28" rx="14" fill="#2B1C39"/>
      <text x="139" y="18" text-anchor="middle" fill="#F6A6FF" font-family="Segoe UI, Arial, sans-serif" font-size="12" font-weight="700">3+ Projects</text>
    </g>

    <g transform="translate(940 323)">
      <rect x="0" y="0" width="82" height="16" rx="8" fill="#2DE2FF" fill-opacity="0.18"/>
      <rect x="0" y="0" width="64" height="16" rx="8" fill="#2DE2FF"/>
      <rect x="102" y="0" width="82" height="16" rx="8" fill="#FF4D9D" fill-opacity="0.18"/>
      <rect x="102" y="0" width="52" height="16" rx="8" fill="#FF4D9D"/>
      <rect x="204" y="0" width="82" height="16" rx="8" fill="#00F5A0" fill-opacity="0.18"/>
      <rect x="204" y="0" width="70" height="16" rx="8" fill="#00F5A0"/>
    </g>
  </g>
</svg>
