<svg width="1400" height="420" viewBox="0 0 1400 420" fill="none" xmlns="http://www.w3.org/2000/svg">
  <defs>
    <linearGradient id="bg3" x1="0" y1="0" x2="1400" y2="420" gradientUnits="userSpaceOnUse">
      <stop stop-color="#0B1120"/>
      <stop offset="1" stop-color="#111827"/>
    </linearGradient>
    <linearGradient id="chip1" x1="0" y1="0" x2="1" y2="0">
      <stop stop-color="#2DE2FF"/>
      <stop offset="1" stop-color="#7C72FF"/>
    </linearGradient>
    <linearGradient id="chip2" x1="0" y1="0" x2="1" y2="0">
      <stop stop-color="#00F5A0"/>
      <stop offset="1" stop-color="#0ABFBC"/>
    </linearGradient>
    <linearGradient id="chip3" x1="0" y1="0" x2="1" y2="0">
      <stop stop-color="#FF5FA2"/>
      <stop offset="1" stop-color="#FF8C42"/>
    </linearGradient>
    <linearGradient id="chip4" x1="0" y1="0" x2="1" y2="0">
      <stop stop-color="#7C72FF"/>
      <stop offset="1" stop-color="#A78BFA"/>
    </linearGradient>
  </defs>

  <rect width="1400" height="420" rx="30" fill="url(#bg3)"/>

  <text x="94" y="86" fill="#F5F7FF" font-size="42" font-weight="800" font-family="Segoe UI, Arial, sans-serif">TECH STACK</text>
  <text x="94" y="120" fill="#7C93D3" font-size="18" font-weight="600" font-family="Segoe UI, Arial, sans-serif">Frontend • Backend • Database • Cloud • Tools</text>

  <g transform="translate(100 160)">
    <rect x="0" y="0" width="160" height="46" rx="23" fill="url(#chip1)"/>
    <text x="80" y="29" text-anchor="middle" fill="#08111D" font-size="18" font-weight="700" font-family="Segoe UI, Arial, sans-serif">React</text>

    <rect x="178" y="0" width="170" height="46" rx="23" fill="url(#chip2)"/>
    <text x="263" y="29" text-anchor="middle" fill="#08111D" font-size="18" font-weight="700" font-family="Segoe UI, Arial, sans-serif">Next.js</text>

    <rect x="366" y="0" width="180" height="46" rx="23" fill="url(#chip3)"/>
    <text x="456" y="29" text-anchor="middle" fill="#08111D" font-size="18" font-weight="700" font-family="Segoe UI, Arial, sans-serif">Tailwind</text>

    <rect x="564" y="0" width="170" height="46" rx="23" fill="url(#chip4)"/>
    <text x="649" y="29" text-anchor="middle" fill="#08111D" font-size="18" font-weight="700" font-family="Segoe UI, Arial, sans-serif">Node.js</text>

    <rect x="752" y="0" width="190" height="46" rx="23" fill="#1F2937" stroke="#00F5A0"/>
    <text x="847" y="29" text-anchor="middle" fill="#DDFCF2" font-size="18" font-weight="700" font-family="Segoe UI, Arial, sans-serif">Express</text>

    <rect x="960" y="0" width="196" height="46" rx="23" fill="#1F2937" stroke="#2DE2FF"/>
    <text x="1058" y="29" text-anchor="middle" fill="#DDF1FF" font-size="18" font-weight="700" font-family="Segoe UI, Arial, sans-serif">MongoDB</text>

    <rect x="0" y="74" width="170" height="46" rx="23" fill="#1F2937" stroke="#7C72FF"/>
    <text x="85" y="103" text-anchor="middle" fill="#E7DFFF" font-size="18" font-weight="700" font-family="Segoe UI, Arial, sans-serif">MySQL</text>

    <rect x="188" y="74" width="186" height="46" rx="23" fill="#1F2937" stroke="#FF5FA2"/>
    <text x="281" y="103" text-anchor="middle" fill="#FFE1F0" font-size="18" font-weight="700" font-family="Segoe UI, Arial, sans-serif">Redux</text>

    <rect x="392" y="74" width="170" height="46" rx="23" fill="#1F2937" stroke="#00F5A0"/>
    <text x="477" y="103" text-anchor="middle" fill="#DDFCF2" font-size="18" font-weight="700" font-family="Segoe UI, Arial, sans-serif">JWT</text>

    <rect x="580" y="74" width="180" height="46" rx="23" fill="#1F2937" stroke="#2DE2FF"/>
    <text x="670" y="103" text-anchor="middle" fill="#DFF5FF" font-size="18" font-weight="700" font-family="Segoe UI, Arial, sans-serif">GitHub</text>

    <rect x="778" y="74" width="170" height="46" rx="23" fill="#1F2937" stroke="#FFAF45"/>
    <text x="863" y="103" text-anchor="middle" fill="#FFECCC" font-size="18" font-weight="700" font-family="Segoe UI, Arial, sans-serif">Vercel</text>

    <rect x="966" y="74" width="190" height="46" rx="23" fill="#1F2937" stroke="#A78BFA"/>
    <text x="1061" y="103" text-anchor="middle" fill="#E9E1FF" font-size="18" font-weight="700" font-family="Segoe UI, Arial, sans-serif">Cloudinary</text>
  </g>
</svg>
